<svg xmlns:xlink="http://www.w3.org/1999/xlink" xmlns="http://www.w3.org/2000/svg" version="1.1" viewBox="0.0 0.0 863.4068241469816 751.5774278215223" fill="none" stroke="none" stroke-linecap="square" stroke-miterlimit="10"><clipPath id="p.0"><path d="m0 0l863.4068 0l0 751.57745l-863.4068 0l0 -751.57745z" clip-rule="nonzero"/></clipPath><g clip-path="url(#p.0)"><path fill="#000000" fill-opacity="0.0" d="m0 0l863.4068 0l0 751.57745l-863.4068 0z" fill-rule="evenodd"/><path fill="#38761d" d="m94.48452 377.8376l0 0c0 -179.20117 138.93979 -324.47244 310.3307 -324.47244l0 0c82.30484 0 161.23868 34.18539 219.43698 95.03577c58.198303 60.850388 90.89374 143.38124 90.89374 229.43666l0 0c0 179.20117 -138.93982 324.47247 -310.33072 324.47247l0 0c-171.39091 0 -310.3307 -145.2713 -310.3307 -324.47247z" fill-rule="evenodd"/><path fill="#000000" fill-opacity="0.0" d="m80.310646 259.43848l648.9449 0l0 236.78741l-648.9449 0z" fill-rule="evenodd"/><path fill="#ffffff" d="m186.75038 392.36343l12.640625 3.203125q-3.96875 15.546875 -14.296875 23.71875q-10.3125 8.171875 -25.21875 8.171875q-15.4375 0 -25.109375 -6.28125q-9.656258 -6.28125 -14.703133 -18.1875q-5.046875 -11.921875 -5.046875 -25.59375q0 -14.90625 5.6875 -26.0q5.703125 -11.109375 16.218758 -16.859375q10.515625 -5.765625 23.140625 -5.765625q14.328125 0 24.09375 7.296875q9.765625 7.28125 13.609375 20.5l-12.4375 2.921875q-3.328125 -10.40625 -9.640625 -15.15625q-6.3125 -4.765625 -15.875 -4.765625q-11.015625 0 -18.40625 5.28125q-7.375 5.265625 -10.375 14.15625q-3.0 8.890625 -3.0 18.328125q0 12.171875 3.546875 21.265625q3.546875 9.078125 11.03125 13.578125q7.5 4.484375 16.21875 4.484375q10.609375 0 17.96875 -6.125q7.359375 -6.125 9.953125 -18.171875zm26.691559 33.46875l0 -95.4375l11.71875 0l0 34.234375q8.203125 -9.5 20.703125 -9.5q7.6875 0 13.343735 3.03125q5.671875 3.03125 8.109375 8.375q2.453125 5.328125 2.453125 15.484375l0 43.8125l-11.71875 0l0 -43.8125q0 -8.796875 -3.8124847 -12.796875q-3.8125 -4.0 -10.78125 -4.0q-5.203125 0 -9.796875 2.703125q-4.59375 2.703125 -6.546875 7.328125q-1.953125 4.609375 -1.953125 12.75l0 37.828125l-11.71875 0zm69.79137 -34.5625q0 -19.21875 10.6875 -28.453125q8.90625 -7.6875 21.734375 -7.6875q14.265625 0 23.3125 9.34375q9.046875 9.34375 9.046875 25.8125q0 13.34375 -4.0 21.0q-4.0 7.640625 -11.65625 11.875q-7.65625 4.234375 -16.703125 4.234375q-14.515625 0 -23.46875 -9.3125q-8.953125 -9.3125 -8.953125 -26.8125zm12.046875 0q0 13.28125 5.796875 19.890625q5.796875 6.59375 14.578125 6.59375q8.734375 0 14.515625 -6.640625q5.796875 -6.640625 5.796875 -20.234375q0 -12.828125 -5.828125 -19.4375q-5.828125 -6.609375 -14.484375 -6.609375q-8.78125 0 -14.578125 6.578125q-5.796875 6.578125 -5.796875 19.859375zm66.33826 34.5625l0 -69.140625l10.546875 0l0 10.484375q4.03125 -7.359375 7.453125 -9.703125q3.421875 -2.34375 7.515625 -2.34375q5.9375 0 12.046875 3.78125l-4.03125 10.875q-4.296875 -2.546875 -8.59375 -2.546875q-3.84375 0 -6.90625 2.3125q-3.0625 2.3125 -4.359375 6.40625q-1.953125 6.25 -1.953125 13.671875l0 36.203125l-11.71875 0zm91.86807 -22.265625l12.09375 1.5q-2.859375 10.609375 -10.609375 16.46875q-7.734375 5.859375 -19.78125 5.859375q-15.171875 0 -24.0625 -9.34375q-8.890625 -9.34375 -8.890625 -26.203125q0 -17.453125 8.984375 -27.078125q8.984375 -9.640625 23.3125 -9.640625q13.875 0 22.65625 9.4375q8.78125 9.4375 8.78125 26.5625q0 1.046875 -0.0625 3.125l-51.5625 0q0.65625 11.390625 6.453125 17.453125q5.796875 6.046875 14.453125 6.046875q6.4375 0 11.0 -3.375q4.5625 -3.390625 7.234375 -10.8125zm-38.484375 -18.9375l38.609375 0q-0.78125 -8.734375 -4.421875 -13.09375q-5.609375 -6.765625 -14.53125 -6.765625q-8.0625 0 -13.5625 5.40625q-5.5 5.390625 -6.09375 14.453125zm59.119507 41.203125l0 -9.5l44.0 -50.53125q-7.484375 0.390625 -13.21875 0.390625l-28.1875 0l0 -9.5l56.515625 0l0 7.75l-37.4375 43.875l-7.21875 8.015625q7.875 -0.59375 14.765625 -0.59375l31.96875 0l0 10.09375l-61.1875 0zm72.91406 -81.96875l0 -13.46875l11.71875 0l0 13.46875l-11.71875 0zm0 81.96875l0 -69.140625l11.71875 0l0 69.140625l-11.71875 0zm29.293152 0l0 -95.4375l11.71875 0l0 95.4375l-11.71875 0zm29.621216 0l0 -95.4375l11.71875 0l0 95.4375l-11.71875 0zm74.996216 -8.53125q-6.515625 5.53125 -12.546875 7.8125q-6.015625 2.28125 -12.90625 2.28125q-11.390625 0 -17.515625 -5.5625q-6.125 -5.5625 -6.125 -14.234375q0 -5.078125 2.3125 -9.265625q2.3125 -4.203125 6.046875 -6.734375q3.75 -2.546875 8.4375 -3.84375q3.453125 -0.921875 10.421875 -1.765625q14.1875 -1.6875 20.890625 -4.03125q0.078125 -2.40625 0.078125 -3.0625q0 -7.15625 -3.328125 -10.09375q-4.484375 -3.96875 -13.34375 -3.96875q-8.265625 0 -12.203125 2.90625q-3.9375 2.890625 -5.828125 10.25l-11.46875 -1.5625q1.5625 -7.359375 5.140625 -11.875q3.59375 -4.53125 10.359375 -6.96875q6.765625 -2.453125 15.6875 -2.453125q8.859375 0 14.390625 2.09375q5.53125 2.078125 8.140625 5.234375q2.609375 3.15625 3.640625 7.96875q0.59375 3.0 0.59375 10.8125l0 15.625q0 16.34375 0.75 20.671875q0.75 4.328125 2.953125 8.296875l-12.234375 0q-1.828125 -3.640625 -2.34375 -8.53125zm-0.984375 -26.171875q-6.375 2.609375 -19.140625 4.4375q-7.21875 1.03125 -10.21875 2.34375q-2.984375 1.296875 -4.625 3.8125q-1.625 2.5 -1.625 5.5625q0 4.6875 3.546875 7.8125q3.546875 3.125 10.390625 3.125q6.765625 0 12.03125 -2.96875q5.28125 -2.96875 7.765625 -8.109375q1.875 -3.96875 1.875 -11.71875l0 -4.296875z" fill-rule="nonzero"/></g></svg>
